<?xml version="1.0" standalone="no"?>
<!DOCTYPE svg PUBLIC "-//W3C//DTD SVG 20010904//EN"
 "http://www.w3.org/TR/2001/REC-SVG-20010904/DTD/svg10.dtd">
<svg version="1.0" xmlns="http://www.w3.org/2000/svg"
 width="1920.000000pt" height="1920.000000pt" viewBox="0 0 1920.000000 1920.000000"
 preserveAspectRatio="xMidYMid meet">
<metadata>
Created by potrace 1.14, written by Peter Selinger 2001-2017
</metadata>
<g transform="translate(0.000000,1920.000000) scale(0.100000,-0.100000)"
fill="#000000" stroke="none">
<path d="M0 9600 l0 -9600 9600 0 9600 0 0 9600 0 9600 -9600 0 -9600 0 0
-9600z m9303 8230 c1059 -63 1956 -251 2625 -552 61 -28 112 -54 112 -59 0 -8
-506 -1938 -515 -1966 -3 -8 -28 -1 -82 23 -437 200 -995 365 -1530 453 -435
72 -780 95 -1287 88 -458 -6 -726 -33 -1101 -108 -1237 -247 -2244 -872 -2963
-1837 -651 -873 -1049 -2022 -1166 -3362 -28 -313 -36 -525 -36 -915 0 -391 8
-609 35 -910 156 -1740 763 -3098 1785 -3998 724 -637 1653 -1027 2745 -1151
356 -41 898 -52 1265 -27 854 59 1646 231 2243 488 70 31 129 54 131 52 1 -2
94 -429 205 -949 111 -520 205 -955 207 -966 5 -17 -2 -24 -33 -37 -21 -9 -78
-34 -128 -55 -1058 -463 -2989 -696 -4520 -546 -2064 201 -3776 1112 -4905
2609 -796 1056 -1296 2368 -1490 3908 -63 500 -84 871 -84 1457 0 592 21 953
84 1457 209 1667 779 3089 1693 4228 218 271 592 661 842 876 1288 1111 2909
1722 4800 1809 222 10 821 4 1068 -10z m7422 -3320 c447 -40 854 -119 1167
-226 131 -45 308 -121 308 -133 1 -14 -304 -1167 -310 -1174 -4 -4 -53 12
-111 37 -733 313 -1684 389 -2450 196 -231 -59 -413 -126 -629 -236 -939 -474
-1525 -1425 -1669 -2710 -65 -574 -49 -1174 45 -1694 135 -749 421 -1349 859
-1799 457 -469 1026 -739 1767 -837 165 -22 627 -30 829 -15 487 37 967 142
1285 282 52 23 96 40 98 38 4 -3 242 -1108 249 -1148 1 -9 -30 -28 -88 -54
-669 -290 -1869 -428 -2805 -321 -843 96 -1587 392 -2195 875 -161 127 -459
424 -587 584 -397 498 -674 1074 -842 1750 -220 884 -241 1971 -55 2900 376
1882 1607 3180 3396 3579 259 58 534 96 863 120 104 7 755 -3 875 -14z"/>
</g>
</svg>
